<svg width="109" height="15" viewBox="0 0 109 16" fill="none" xmlns="http://www.w3.org/2000/svg"><g clip-path="url(#pangea_logo)"><path d="M0 0.800453H5.62582V2.30505C5.90094 2.07155 6.19516 1.86007 6.50556 1.67269C7.07195 1.37507 7.67259 1.14329 8.29503 0.982169C9.1867 0.723053 10.1134 0.594837 11.0442 0.60178H11.4791C12.5547 0.580493 13.6269 0.725253 14.6556 1.03063C15.4372 1.25651 16.1456 1.67372 16.7125 2.24207C17.1734 2.72261 17.5288 3.28889 17.7572 3.90658C17.9781 4.54256 18.0862 5.21021 18.0771 5.88122V6.30279C18.0826 6.98224 17.9676 7.65755 17.7372 8.29925C17.4949 8.94356 17.1257 9.53605 16.65 10.0437C16.0702 10.6371 15.3444 11.0781 14.5407 11.3254C13.5008 11.6603 12.4096 11.82 11.3141 11.7979H10.9217C10.0174 11.8034 9.11637 11.6918 8.24254 11.4659C7.62586 11.3246 7.02856 11.1132 6.46307 10.836C6.16787 10.6723 5.88775 10.4842 5.62582 10.2739V15.3619H0V0.800453ZM5.62582 6.13077V6.21073C5.63043 6.55665 5.71367 6.89731 5.86962 7.20847C6.02557 7.51963 6.25039 7.79362 6.52805 8.01092C7.12121 8.52457 7.97595 8.78139 9.09229 8.78139H9.19726C10.3269 8.78139 11.14 8.5278 11.6365 8.02062C11.878 7.78247 12.0686 7.50041 12.1972 7.19064C12.3259 6.88087 12.3902 6.5495 12.3863 6.21557V6.13562C12.3956 5.80082 12.3353 5.46765 12.2091 5.15589C12.0828 4.84414 11.8932 4.56017 11.6515 4.32089C11.1617 3.83631 10.3452 3.59402 9.20226 3.59402H9.09729C7.95263 3.59402 7.09122 3.84116 6.51306 4.33542C6.23615 4.55243 6.01277 4.8267 5.85926 5.13817C5.70575 5.44964 5.62599 5.79042 5.62582 6.13562V6.13077Z" fill="white"></path><path d="M29.3513 10.1454C28.2217 11.2422 26.4839 11.7906 24.1379 11.7906H23.9105C22.1726 11.7906 20.8805 11.4562 20.0341 10.7875C19.6401 10.5003 19.3209 10.1276 19.1021 9.69929C18.8834 9.27097 18.7712 8.79895 18.7745 8.32102V8.07874C18.7523 7.66028 18.8359 7.2429 19.018 6.86288C19.2 6.48286 19.4751 6.15169 19.8192 5.89815C20.514 5.38127 21.6686 5.06307 23.2831 4.94354L28.6391 4.48319C29.0539 4.42989 29.2614 4.25545 29.2614 3.96228C29.2662 3.81705 29.2184 3.67478 29.1264 3.56008C28.9277 3.40313 28.6881 3.3025 28.4341 3.26933C27.909 3.17068 27.3743 3.12762 26.8396 3.14092H26.7571C26.2963 3.13338 25.8359 3.1699 25.3825 3.24995C25.0999 3.28658 24.8342 3.40188 24.6178 3.58189C24.5126 3.67918 24.4218 3.79006 24.3478 3.91139C24.3039 4.0182 24.2728 4.12959 24.2554 4.24333H19.0244V4.12218C19.0208 3.80573 19.0518 3.4898 19.1169 3.17969C19.2176 2.83656 19.3875 2.51621 19.6167 2.23719C19.9144 1.86017 20.3009 1.55777 20.7439 1.35527C21.4178 1.0708 22.1268 0.872091 22.8533 0.764085C23.944 0.587235 25.049 0.506144 26.1548 0.521798H27.3119C28.4611 0.508717 29.6095 0.585691 30.7459 0.75197C31.498 0.848212 32.2344 1.03627 32.9378 1.31166C33.3921 1.50194 33.7956 1.79033 34.1174 2.15481C34.36 2.41361 34.5401 2.72149 34.6448 3.05612C34.7115 3.36272 34.7425 3.67562 34.7372 3.98893V7.9794C34.7281 8.04224 34.7341 8.10629 34.7548 8.16649C34.7756 8.22669 34.8105 8.28139 34.8568 8.32627C34.9031 8.37115 34.9595 8.40498 35.0216 8.42509C35.0837 8.44521 35.1498 8.45105 35.2146 8.44217H35.8144V11.5919H31.1508C30.1161 11.5903 29.5163 11.1081 29.3513 10.1454ZM29.2489 6.95694V6.4966L25.5225 7.13866C25.1528 7.17788 24.7946 7.28651 24.4678 7.45848C24.3664 7.52359 24.2844 7.61334 24.23 7.71879C24.1757 7.82423 24.1508 7.94166 24.1579 8.05935V8.08116C24.1574 8.23264 24.1935 8.38212 24.2634 8.51761C24.3333 8.6531 24.435 8.77081 24.5603 8.86132C24.8302 9.07695 25.2801 9.18356 25.9149 9.18356C26.9146 9.18356 27.7177 8.95986 28.3241 8.51243C28.9306 8.06501 29.2389 7.54651 29.2489 6.95694V6.95694Z" fill="white"></path><path d="M36.7966 11.5895V0.800488H42.3825V2.70729C42.5899 2.5183 42.7524 2.37535 42.8823 2.27602C43.1264 2.08416 43.3818 1.90618 43.6471 1.74299C44.0067 1.50699 44.3913 1.30881 44.7942 1.15181C45.2696 0.98276 45.7575 0.849112 46.2538 0.752031C46.8754 0.621746 47.5098 0.557566 48.1458 0.560626H48.2707C49.1522 0.543838 50.0301 0.67583 50.8649 0.950705C51.51 1.15573 52.0952 1.5071 52.5719 1.97558C52.9436 2.35443 53.2416 2.79519 53.4517 3.27666C53.6351 3.71293 53.7301 4.17934 53.7316 4.65043V11.5895H48.0833V6.43609C48.1195 5.77169 47.8853 5.12005 47.431 4.62135C46.9978 4.17231 46.3188 3.94861 45.3941 3.95022C44.4694 3.95022 43.7471 4.19251 43.2222 4.67708C42.9596 4.92242 42.7538 5.2191 42.6185 5.54743C42.4832 5.87576 42.4215 6.22824 42.4375 6.58146V11.5944L36.7966 11.5895Z" fill="white"></path><path d="M64.6881 15.5H63.0961C61.934 15.5126 60.7735 15.4119 59.6322 15.1996C58.835 15.0637 58.0617 14.819 57.3353 14.4727C56.8459 14.2248 56.4106 13.8875 56.0532 13.4793C55.7834 13.1889 55.5724 12.8519 55.4309 12.486C55.3429 12.2139 55.2982 11.9304 55.2984 11.6452V11.5847H60.9443C61.0809 12.1855 62.0464 12.486 63.8409 12.486H63.9034C66.151 12.486 67.2749 11.5709 67.2749 9.74084V9.52036C66.1702 10.588 64.3632 11.1227 61.854 11.1243H61.5241C59.1515 11.1243 57.407 10.6357 56.2906 9.65846C55.751 9.20357 55.3213 8.63913 55.0319 8.00518C54.7425 7.37124 54.6006 6.68332 54.6161 5.99024V5.62923C54.6025 4.95892 54.7355 4.29341 55.0065 3.67657C55.2774 3.05973 55.6802 2.50558 56.1882 2.05065C57.2362 1.0815 58.8907 0.596924 61.1517 0.596924H61.6066C64.0608 0.596924 65.9428 1.1243 67.2524 2.17906V0.795601H72.8807V9.77961C72.8821 10.2693 72.8225 10.7574 72.7033 11.2333C72.5537 11.7698 72.313 12.2783 71.991 12.7379C71.6197 13.2833 71.1457 13.7559 70.5939 14.1311C69.8632 14.5924 69.0544 14.9253 68.2046 15.1148C67.0541 15.3878 65.8724 15.5172 64.6881 15.5V15.5ZM63.6535 3.64974H63.531C62.3863 3.64974 61.5624 3.8565 61.0592 4.27C60.8211 4.45477 60.6297 4.6899 60.4998 4.95741C60.3698 5.22492 60.3047 5.51771 60.3095 5.81337V5.92724C60.3056 6.23669 60.3732 6.54306 60.5073 6.82392C60.6413 7.10479 60.8385 7.35306 61.0842 7.55057C61.6024 7.99153 62.4197 8.21201 63.536 8.21201H63.6585C64.8248 8.21201 65.7078 7.9883 66.3077 7.54088C66.5824 7.36303 66.8086 7.12338 66.967 6.84239C67.1254 6.56139 67.2113 6.24741 67.2174 5.92724V5.86667C67.2146 5.55229 67.1308 5.24357 66.9737 4.96854C66.8166 4.69351 66.5911 4.46089 66.3177 4.2918C65.7145 3.86215 64.8264 3.64813 63.6535 3.64974Z" fill="white"></path><path d="M91.2527 7.65958V7.69834C91.2553 8.04414 91.2065 8.38851 91.1077 8.7208C90.9635 9.12456 90.7384 9.49673 90.4454 9.81593C90.0671 10.2483 89.6031 10.6026 89.0808 10.8578C88.3159 11.2059 87.5052 11.4505 86.6715 11.5846C85.4748 11.7986 84.2595 11.8992 83.0426 11.8851H81.9455C80.777 11.8994 79.6107 11.7848 78.469 11.5434C77.625 11.3782 76.8145 11.0803 76.0697 10.6615C75.5059 10.3256 75.0145 9.88711 74.6226 9.37012C74.2802 8.92423 74.0259 8.42065 73.8729 7.8849C73.7383 7.37763 73.6719 6.85562 73.6754 6.33185V5.92722C73.6754 2.30584 76.4129 0.49434 81.888 0.492725H83.0251C83.9453 0.485584 84.8646 0.549588 85.7743 0.68413C86.484 0.78354 87.1809 0.954888 87.8537 1.19536C88.3846 1.38966 88.8825 1.65998 89.3308 1.99733C89.7073 2.27552 90.0435 2.60149 90.3305 2.96648C90.5831 3.30466 90.785 3.67581 90.9303 4.06888C91.0702 4.43918 91.1707 4.82237 91.2302 5.21247C91.2799 5.59499 91.3041 5.98022 91.3027 6.36576V6.96664H79.1938C79.3854 8.29276 80.5092 8.955 82.5653 8.95339H82.5853C83.0333 8.9576 83.4805 8.917 83.9199 8.83225C84.2332 8.77723 84.5386 8.68613 84.8296 8.56089C85.0246 8.47455 85.2029 8.35656 85.3569 8.21199C85.4653 8.11668 85.5566 8.0045 85.6269 7.88006C85.6656 7.80333 85.6934 7.72181 85.7093 7.63777L91.2527 7.65958ZM82.4628 3.14819C80.63 3.14819 79.5612 3.6893 79.2563 4.77152H85.6693C85.4344 3.68769 84.3656 3.14658 82.4628 3.14819Z" fill="white"></path><path d="M102.527 10.1455C101.396 11.2422 99.6578 11.7906 97.3135 11.7906H97.0861C95.3483 11.7906 94.0553 11.4562 93.2073 10.7875C92.8113 10.5012 92.4901 10.129 92.2692 9.70069C92.0483 9.27239 91.9339 8.7999 91.9351 8.32105V8.07876C91.913 7.6603 91.9965 7.24293 92.1786 6.8629C92.3607 6.48288 92.6357 6.15171 92.9798 5.89818C93.6779 5.3813 94.8326 5.06309 96.4438 4.94357L101.802 4.48322C102.215 4.42992 102.422 4.25547 102.422 3.96231C102.427 3.81708 102.379 3.6748 102.287 3.56011C102.089 3.40261 101.849 3.30191 101.595 3.26936C101.07 3.17069 100.537 3.12763 100.003 3.14095H99.9202C99.4586 3.13342 98.9974 3.16994 98.5432 3.24998C98.3288 3.27107 98.1228 3.34226 97.943 3.45747C97.7633 3.57268 97.615 3.72845 97.511 3.91142C97.466 4.01807 97.4341 4.12948 97.416 4.24335H92.2051V4.12221C92.2002 3.80571 92.2312 3.48965 92.2975 3.17971C92.3974 2.83628 92.5674 2.51577 92.7974 2.23721C93.0939 1.85913 93.4807 1.55649 93.9245 1.35529C94.5983 1.07047 95.3073 0.871743 96.0339 0.764111C97.1238 0.587145 98.228 0.506052 99.3329 0.521824H100.5C101.648 0.508821 102.796 0.585795 103.932 0.751996C104.684 0.848192 105.422 1.03625 106.126 1.31168C106.58 1.50161 106.982 1.79008 107.303 2.15484C107.546 2.41301 107.727 2.72109 107.83 3.05615C107.898 3.36264 107.93 3.67555 107.925 3.98895V7.97942C107.916 8.04213 107.921 8.10615 107.942 8.16638C107.962 8.22661 107.997 8.28138 108.043 8.32633C108.089 8.37128 108.145 8.40516 108.207 8.42528C108.269 8.44539 108.335 8.45118 108.4 8.44219H108.998V11.5919H104.324C103.291 11.5903 102.692 11.1082 102.527 10.1455ZM102.422 6.95697V6.49663L98.6981 7.13869C98.3286 7.17833 97.9704 7.28694 97.6434 7.45851C97.5424 7.52396 97.4607 7.61378 97.4064 7.71914C97.352 7.8245 97.3269 7.94176 97.3335 8.05938V8.08119C97.3333 8.23287 97.3699 8.38248 97.4402 8.51798C97.5105 8.65348 97.6127 8.77109 97.7384 8.86135C98.005 9.07617 98.4565 9.18359 99.093 9.18359C99.9504 9.22272 100.797 8.98685 101.502 8.51246C102.115 8.06503 102.422 7.54654 102.422 6.95697Z" fill="white"></path></g><defs><clipPath id="pangea_logo"><rect width="109" height="16" fill="white" transform="translate(0 0.5)"></rect></clipPath></defs></svg>
