<svg width="24" height="24" viewBox="0 0 24 24" fill="none" xmlns="http://www.w3.org/2000/svg"><g clip-path="url(#menu_icon)"><path d="M0 4C-0.552285 4 -1 4.44772 -1 5C-1 5.55228 -0.552285 6 0 6V4ZM20.48 6C21.0323 6 21.48 5.55228 21.48 5C21.48 4.44772 21.0323 4 20.48 4V6ZM0 6H20.48V4H0V6Z" fill="white"></path><path d="M0 18.0098C-0.552285 18.0098 -1 18.4575 -1 19.0098C-1 19.5621 -0.552285 20.0098 0 20.0098V18.0098ZM20.48 20.0098C21.0323 20.0098 21.48 19.5621 21.48 19.0098C21.48 18.4575 21.0323 18.0098 20.48 18.0098V20.0098ZM0 20.0098H20.48V18.0098H0V20.0098Z" fill="white"></path><path d="M0 10.8906C-0.552285 10.8906 -1 11.3383 -1 11.8906C-1 12.4429 -0.552285 12.8906 0 12.8906V10.8906ZM15.09 12.8906C15.6423 12.8906 16.09 12.4429 16.09 11.8906C16.09 11.3383 15.6423 10.8906 15.09 10.8906V12.8906ZM0 12.8906H15.09V10.8906H0V12.8906Z" fill="white"></path></g><defs><clipPath id="menu_icon"><rect width="24" height="24" fill="white"></rect></clipPath></defs></svg>
