<svg width="16" height="16" viewBox="0 0 24 24" fill="none" xmlns="http://www.w3.org/2000/svg"><path fill-rule="evenodd" clip-rule="evenodd" d="M1.80273 10.8054C1.80273 5.83486 5.83217 1.80542 10.8027 1.80542C15.7733 1.80542 19.8027 5.83486 19.8027 10.8054C19.8027 12.9299 19.0666 14.8825 17.8355 16.422L22.7071 21.2936C23.0977 21.6842 23.0977 22.3173 22.7071 22.7078C22.3166 23.0984 21.6835 23.0984 21.2929 22.7078L16.4215 17.8364C14.8817 19.0686 12.9283 19.8054 10.8027 19.8054C5.83217 19.8054 1.80273 15.776 1.80273 10.8054ZM10.8027 3.80542C6.93674 3.80542 3.80273 6.93943 3.80273 10.8054C3.80273 14.6714 6.93674 17.8054 10.8027 17.8054C14.6687 17.8054 17.8027 14.6714 17.8027 10.8054C17.8027 6.93943 14.6687 3.80542 10.8027 3.80542Z" fill="#777675"></path></svg>
